<?xml version="1.0" encoding="utf-8" ?><svg xmlns="http://www.w3.org/2000/svg" xmlns:xlink="http://www.w3.org/1999/xlink" width="504" height="304" viewBox="0 0 504 304"><path d="M0 0L504 0L504 304L0 304L0 0Z" fill="none"/><path fill="#FEFEFE" d="M103.441 132.148C102.484 131.896 101.513 131.524 100.602 131.131C94.764 128.616 88.5529 126.729 82.833 123.991C81.3379 123.576 81.2965 120.386 81.4718 118.999C81.9932 114.875 80.5849 95.5793 82.1663 93.0058C84.346 91.9902 99.861 89.5509 103.372 88.9307C117.789 86.4036 132.224 83.9843 146.677 81.673C153.996 80.4574 161.704 78.9606 168.986 77.9049C180.259 76.2708 193.432 76.1349 204.581 74.521C208.145 78.8384 212.492 84.2914 216.218 88.3556C213.931 88.9642 211.658 89.6238 209.401 90.3341C212.78 90.2618 215.33 90.5278 218.697 90.7992C218.653 96.0808 217.969 102.245 217.642 107.626C216.32 109.158 214.972 110.668 213.6 112.155C215.103 111.593 216.616 111.059 218.138 110.551C219.216 110.777 220.546 111.25 221.616 111.597C218.006 112.714 214.744 113.934 211.03 114.862C210.765 108.116 211.052 101.557 210.852 94.8546C206.937 89.7781 202.294 82.6779 198.268 77.9223C192.342 78.181 182.529 78.6179 176.896 79.6406C157.18 83.2202 137.252 86.1063 117.742 90.6072C112.242 91.8759 105.215 94.3095 99.7202 94.8992C102.693 100.708 107.083 109.157 109.239 115.171C109.659 116.343 110.722 126.203 110.924 127.92C112.357 126.097 111.17 124.141 111.935 121.599C112.023 120.449 111.928 117.86 111.917 116.607C119.618 114.892 127.58 113.218 135.231 111.369C135.23 114.615 135.18 117.936 135.4 121.169C136.14 117.543 137.052 114.269 138.03 110.704C140.07 110.117 142.259 109.535 144.364 109.299C143.405 108.474 142.438 107.658 141.465 106.85C139.873 107.236 138.881 107.493 137.32 108.067C134.047 103.777 128.315 95.3332 124.957 91.7387C129.456 91.1226 134.853 89.9742 139.385 89.1191C147.825 87.494 156.282 85.9608 164.755 84.5197C167.48 87.7478 171.275 91.5861 174.226 94.726L175.025 94.6692C172.701 91.2884 170.001 87.1193 167.581 83.8916C169.855 83.616 172.072 83.2058 174.331 82.8535C181.837 81.683 189.592 81.3434 197.17 80.8471C198.942 83.5111 202.883 89.0392 204.919 91.5484C202.909 91.9622 199.876 92.7508 197.979 92.906C198.865 93.6707 199.836 94.4743 200.697 95.2543C202.403 94.8254 205.707 93.6842 207.084 94.3412C208.635 96.4055 208.063 103.388 208.276 106.51C207.31 104.821 206.316 102.982 205.206 101.397C204.12 101.193 202.804 100.985 201.748 100.744C200.341 98.9262 199.39 97.6808 197.666 96.125C191.975 97.2073 185.923 98.913 180.277 100.343C173.402 102.051 166.518 103.72 159.625 105.351C155.79 106.269 150.823 107.598 147.001 108.218C158.664 120.997 160.088 132.231 160.237 149.271C163.988 148.136 167.721 146.942 171.435 145.691C171.31 147.221 171.322 147.954 171.424 149.489C168.745 150.211 165.879 151.246 163.251 152.206C153.25 155.859 142.814 158.765 132.88 162.563L105.25 147.622L104.896 148.086C106.816 149.11 110.39 151.643 112.38 152.913L130.251 164.34C130.154 165.439 130.118 166.58 130.068 167.685C133.237 169.091 136.834 170.964 139.982 172.519C136.122 173.8 132.135 175.076 128.318 176.446C128.233 178.535 128.202 182.283 128.423 184.256C126.517 182.874 124.573 181.546 122.593 180.273C122.797 177.68 122.907 175.071 123.123 172.44L105.534 163.412C101.936 161.527 97.5704 158.946 93.8785 157.475C94.1127 157.976 95.1528 158.495 95.6846 158.819C95.647 160.324 95.4618 164.252 95.7846 165.49L96.0928 165.474C96.9298 164.262 97.6338 162.041 98.1625 160.595C101.326 162.411 104.169 164.248 107.23 166.228C104.699 166.344 101.761 166.385 99.2557 166.57C94.489 166.921 92.5409 164.884 88.511 162.962L88.4959 154.512C90.5924 153.708 95.2996 151.19 97.5163 150.091C97.4006 148.088 97.4787 146.117 97.5261 144.112C99.6326 143.792 101.303 143.613 103.428 143.451L103.441 132.148Z"/><path fill="#0E1514" d="M110.924 127.92C112.357 126.097 111.17 124.141 111.935 121.599C111.982 125.397 112.157 130.309 111.892 134.002C111.461 133.679 111.008 128.708 110.924 127.92Z"/><path fill="#464B4C" d="M104.896 148.086C104.275 147.69 101.887 146.338 101.657 145.872C103.313 146.431 103.768 146.706 105.25 147.622L104.896 148.086Z"/><path fill="#464B4C" d="M175.025 94.6692C175.877 95.6098 176.581 96.8441 177.257 97.9325C176.237 96.8726 175.226 95.8037 174.226 94.726L175.025 94.6692Z"/><path d="M111.628 135.498C111.799 135.474 111.969 135.447 112.139 135.419C114.317 135.064 134.606 130.857 135.345 129.825L135.113 128.482C135.205 128.351 135.297 128.22 135.389 128.089C141.156 126.542 150.067 124.689 155.532 123.319L156.014 126.091C152.033 126.57 141.07 128.892 137.244 130.104C145.151 132.571 148.71 130.043 156.539 128.807L157.059 131.576C152.576 132.338 148.462 133.316 143.864 134.006C143.762 137.073 143.83 140.24 143.856 143.315L142.956 144.405C142.377 140.953 141.706 137.443 141.081 133.993C139.437 133.619 138.367 133.342 136.752 132.811C134.371 133.553 128.653 134.625 125.972 135.205L125.928 153.295C122.067 151.426 118.207 149.566 114.333 147.724C111.983 146.606 109.296 145.586 107.068 144.316C111.113 145.177 119.116 147.553 123.177 148.842L123.203 135.868C119.583 136.666 115.302 137.697 111.69 138.225C110.829 137.108 108.653 134.894 107.589 133.702C108.927 134.318 110.274 134.917 111.628 135.498Z"/><path d="M161.347 90.8172C161.999 90.9762 164.412 94.0536 165.475 95.0423C157.524 96.9091 148.746 99.1127 140.803 100.722C139.679 100.618 137.375 96.5681 136.745 95.5633C139.523 95.254 143.421 94.3909 146.22 93.8367L161.347 90.8172Z"/><path d="M194.88 83.8344L195.749 83.7174C196.777 84.0482 198.612 86.5068 199.4 87.4713C192.202 89.0472 185.154 90.9266 177.849 92.4457C177.659 92.5035 177.243 92.4947 177.023 92.5009C176.176 91.8689 174.359 89.1988 173.565 88.1334C179.835 86.6713 188.543 84.8049 194.88 83.8344Z"/><path d="M134.225 144.503C137.384 146.095 140.484 147.779 143.667 149.323C147.72 148.581 152.74 146.553 156.999 145.637C157.446 146.36 157.453 147.316 157.103 148.073C156.26 148.755 154.623 149.091 153.525 149.397C149.376 150.754 145.218 152.081 141.05 153.379C135.434 148.521 135.761 148.427 128.828 145.71C131.18 145.476 132.733 145.966 134.225 144.503Z"/><path fill="#0E1514" d="M143.856 143.315C144.008 145.435 144.06 147.325 144.092 149.453C143.446 147.798 143.137 146.169 142.956 144.405L143.856 143.315Z"/><path fill="#FEFEFE" d="M255.396 103.53L266.672 103.562C266.478 105.997 266.589 109.77 266.589 112.32L266.593 130.769C266.594 134.552 266.711 139.008 266.369 142.71C264.103 142.591 261.284 142.651 258.976 142.639C258.913 137.392 258.955 132.067 258.95 126.814C258.995 122.869 258.922 118.923 258.731 114.982C256.539 122.349 253.358 130.881 250.815 138.235L243.18 138.125C241.07 130.557 237.066 122.385 235.056 115.049C234.693 123.13 235.046 134.367 235.048 142.692L227.502 142.656L227.509 103.55L238.596 103.525C239.824 108.592 242.18 114.033 243.561 119.125C244.54 122.736 246.265 126.569 246.764 130.279C248.876 124.33 250.879 118.342 252.774 112.319C253.531 109.947 254.936 105.885 255.396 103.53Z"/><path fill="#FEFEFE" d="M307.458 103.557C314.062 103.526 329.425 102.399 334.482 105.667C336.875 107.213 338.437 109.626 339.032 112.396C339.709 115.551 339.25 118.963 337.478 121.689C335.786 124.29 333.316 125.838 330.318 126.487C333.678 130.516 337.648 138.04 341.261 142.508C338.809 142.73 335.931 142.675 333.438 142.685L330.906 142.638C328.055 137.453 324.015 132.269 321.029 126.998L315.83 126.969C315.626 131.911 315.762 137.684 315.76 142.688L307.525 142.711C307.136 130.409 307.268 115.925 307.458 103.557Z"/><path d="M315.783 110.761C319.288 110.703 326.101 109.995 329.067 111.713C331.302 113.008 330.822 116.69 329.375 118.648C326.792 120.537 319.39 119.831 315.789 119.739C315.82 116.746 315.818 113.754 315.783 110.761Z"/><path fill="#FE168B" d="M317.222 111.75C321.138 111.781 332.458 110.424 327.739 118.001C325.456 119.463 320.111 119.022 317.232 118.985C317.284 116.602 317.238 114.14 317.222 111.75Z"/><path fill="#FEFEFE" d="M387.37 103.532L392.838 103.513C394.028 106.811 396.55 112.193 397.998 115.548L409.915 142.618C406.842 142.67 403.768 142.678 400.694 142.645C400.221 140.994 398.965 137.996 398.311 136.292L392.875 136.287C389.209 136.309 385.543 136.292 381.878 136.236C381.214 138.202 380.158 140.698 379.399 142.699C376.401 142.677 373.402 142.637 370.404 142.579L379.715 121.152C382.198 115.578 385.283 109.184 387.37 103.532Z"/><path d="M389.79 116.173C390.628 116.851 394.608 127.096 395.501 129.011L390.625 129.046C388.647 129.07 386.669 129.053 384.692 128.995C385.744 127.413 389.357 118.079 389.79 116.173Z"/><path fill="#FBE900" d="M389.973 119.437C390.767 120.056 393.131 126.616 393.667 128.016L390.625 128.03L386.557 128.031C387.675 125.158 388.814 122.293 389.973 119.437Z"/><path fill="#FEFEFE" d="M284.088 103.526L289.536 103.545C290.915 107.486 293.18 111.633 294.755 115.52C298.408 124.542 302.99 133.758 306.637 142.701C304.32 142.511 299.99 142.64 297.53 142.641C296.77 140.539 295.913 138.44 295.143 136.308L290.108 136.287L278.561 136.281C277.812 138.456 276.822 140.429 276.289 142.678L266.968 142.655L278.53 116.391C280.226 112.533 282.709 107.389 284.088 103.526Z"/><path d="M287.014 116.135L287.336 116.505C287.581 118.176 291.273 127.262 292.083 129.036L286.625 129.064C284.884 129.048 283.143 129.063 281.403 129.11C283.389 125.543 285.183 119.12 287.014 116.135Z"/><path fill="#00ADEB" d="M286.866 119.691C287.617 120.356 289.757 126.788 290.185 128.101L286.62 128.009L283.355 128.013C284.31 125.564 285.688 121.957 286.866 119.691Z"/><path fill="#FEFEFE" d="M355.11 103.348C365.005 102.084 370.816 107.452 373.365 116.522C370.482 116.584 367.597 116.559 364.716 116.702C362.894 111.667 359.432 109.466 354.04 111.107C347.983 112.95 350.174 123.622 349.934 128.467C349.813 130.913 351.246 134.333 353.873 135.022C359.624 136.531 362.585 135.047 364.68 129.618C365.44 129.321 372.212 129.522 373.485 129.545C371.421 136.391 367.759 141.907 360.296 142.699C345.77 144.241 340.033 136.842 341.133 123C341.535 117.935 340.317 112.8 344.189 108.224C347.176 104.692 350.799 103.803 355.11 103.348Z"/><path fill="#FEFEFE" d="M368.749 145.58C373.975 144.928 381.109 147.845 381.538 153.85C382.191 162.967 383.384 171.635 372.212 173.746C368.577 173.812 366.072 173.867 362.834 171.766C360.921 170.523 358.934 167.61 358.804 165.28C358.266 155.66 357.011 147.565 368.749 145.58Z"/><path d="M370.164 150.855C372.771 150.996 375.415 151.966 375.53 155.04C375.666 158.661 376.339 163.643 374.646 166.91C374.01 168.137 371.454 168.312 370.309 168.386C363.635 168.104 364.71 162.853 364.738 157.733C364.763 153.284 365.524 151.342 370.164 150.855Z"/><path fill="#FBE900" d="M367.61 152.788C373.639 152.459 374.783 152.084 374.62 159.005C374.551 161.945 375.426 165.674 372.497 167.158C363.86 168.372 366.361 163.382 365.943 157.441C365.79 155.263 365.761 153.949 367.61 152.788Z"/><path fill="#FEFEFE" d="M202.451 145.777C207.028 146.007 211.835 145.69 216.662 145.882C224.137 146.179 227.357 153.35 223.27 159.344C222.108 161.048 220.474 161.296 218.939 162.536C221.516 166.214 224.019 169.945 226.445 173.724C224.762 173.637 222.656 173.683 220.937 173.677C220.667 173.678 219.308 173.645 219.154 173.419C216.695 169.836 214.376 166.136 212.017 162.484L208.493 162.46C208.456 166.2 208.442 169.941 208.454 173.681L202.446 173.651C202.189 165.011 202.346 154.454 202.451 145.777Z"/><path d="M208.501 150.99C212.525 151.073 221.338 149.239 218.383 156.315C216.749 157.869 211.185 157.246 208.477 157.297L208.501 150.99Z"/><path fill="#FE168B" d="M209.248 151.658C212.525 151.854 220.676 150.58 217.067 156.317C215.163 156.842 211.59 156.898 209.378 157.107C209.412 155.125 209.456 153.633 209.248 151.658Z"/><path fill="#FEFEFE" d="M263.693 145.808C265.194 145.898 267.666 145.801 269.235 145.786C269.285 155.069 269.283 164.351 269.231 173.634L262.005 173.643C259.367 168.098 252.763 158.472 250.989 153.185C250.547 159.516 250.742 167.238 250.743 173.673C248.906 173.586 246.866 173.586 245.01 173.545L245.038 145.846L252.331 145.821C255.573 151.848 261.044 160.694 263.672 166.487C263.371 161.424 263.424 150.897 263.693 145.808Z"/><path fill="#FEFEFE" d="M175.005 104.029L182.176 104.014C182.266 114.761 181.937 125.544 182.087 136.286C189.708 136.147 197.546 136.331 205.212 136.238C206.113 138.256 207.045 140.26 208.009 142.249L175.012 142.214L175.005 104.029Z"/><path fill="#FEFEFE" d="M388.329 145.842C395.272 146 410.765 143.436 410.995 153.967C411.059 156.21 410.198 158.38 408.615 159.969C406.041 162.549 403.352 162.759 400.006 162.783L394.304 162.793C394.355 166.348 394.276 170.106 394.259 173.677L388.278 173.626C388.246 164.364 388.263 155.103 388.329 145.842Z"/><path d="M394.313 150.981C398.111 150.869 408.677 149.97 403.64 157.124C400.92 157.994 397.297 157.768 394.368 157.763C394.314 155.502 394.396 153.286 394.313 150.981Z"/><path fill="#FE168B" d="M395.157 151.75C397.579 151.955 407.164 151.104 402.768 156.364C400.12 157.492 398.173 157.389 395.296 157.596C395.278 155.647 395.232 153.698 395.157 151.75Z"/><path fill="#FEFEFE" d="M174.532 145.859C179.431 145.816 191.956 144.844 194.82 148.556C201.075 156.666 194.48 162.764 186.001 162.784L180.46 162.797C180.399 166.426 180.375 170.056 180.387 173.686L174.516 173.666C174.471 164.397 174.477 155.128 174.532 145.859Z"/><path d="M180.356 151.006C183.216 150.924 187.291 150.461 189.833 151.923C191.816 153.062 190.927 155.617 189.776 157.089C186.851 158.112 183.482 157.8 180.385 157.758C180.268 155.631 180.325 153.14 180.356 151.006Z"/><path fill="#00ADEB" d="M181.188 151.79C183.479 151.755 193.601 151.383 188.725 156.41C186.419 157.625 183.798 157.487 181.209 157.493C181.166 155.616 181.188 153.673 181.188 151.79Z"/><path fill="#FEFEFE" d="M198.954 103.988C200.402 104.017 201.848 103.956 203.296 103.909C205.921 108.845 208.633 115.226 210.989 120.373L221.138 142.234L213.985 142.271C213.588 140.888 211.952 137.352 211.319 135.914C209.605 132.026 207.918 128.035 206.146 124.184C204.628 120.651 202.288 116.328 201.095 112.827C200.51 115.061 199.007 118.175 198.036 120.348C196.128 124.538 194.252 128.742 192.408 132.961C190.295 132.803 187.317 132.856 185.138 132.832C189.311 123.872 195.285 112.721 198.954 103.988Z"/><path fill="#FEFEFE" d="M121.793 92.3801C122.762 92.479 132.507 106.459 134.288 108.502C128.567 110.242 121.123 111.794 115.206 113.173L111.867 113.828C110.233 109.417 105.256 99.6502 103.072 95.3388C103.807 95.3103 104.519 95.1957 105.244 95.0752C110.753 94.1582 116.246 93.0532 121.793 92.3801Z"/><path fill="#FEFEFE" d="M345.747 145.846C347.663 145.879 349.772 145.804 351.705 145.774C351.859 154.945 351.721 164.497 351.719 173.699L345.721 173.615L345.727 162.32C341.983 162.366 338.107 162.307 334.351 162.3L334.281 173.689L328.483 173.65L328.505 145.806C330.411 145.863 332.351 145.816 334.26 145.795C334.363 149.528 334.306 153.534 334.317 157.288L345.714 157.283C345.683 153.498 345.735 149.637 345.747 145.846Z"/><path fill="#FEFEFE" d="M310.335 145.595C314.404 145.017 318.634 146.631 322.204 148.408C321.16 150.113 320.643 151.008 319.837 152.835C316.449 151.33 313.552 150.11 309.764 150.771C307.827 151.109 306.355 151.637 306.181 153.906C307.421 158.78 323.123 155.718 322.827 164.949C322.594 172.204 316.725 173.698 310.642 173.778C305.372 173.668 303.169 172.963 298.644 170.35C299.532 169.266 300.636 167.42 301.42 166.195C305.269 168.352 317.13 171.149 316.7 165.06C316.392 160.701 300.673 163.653 300.291 155.617C299.936 148.144 303.911 146.372 310.335 145.595Z"/><path fill="#FEFEFE" d="M274.384 145.816C281.346 146.061 290.46 145.881 297.476 145.809L297.534 150.792C294.738 150.846 291.733 150.96 288.955 150.854C288.773 155.439 288.862 160.436 288.865 165.054L288.808 173.667L282.985 173.654C282.87 166.121 282.947 158.392 282.94 150.845C280.187 150.919 277.056 150.823 274.275 150.803C274.299 149.14 274.335 147.478 274.384 145.816Z"/><path fill="#FEFEFE" d="M231.728 145.879L237.782 145.761C238.202 154.231 237.96 165.059 237.879 173.671L231.703 173.619L231.728 145.879Z"/><path fill="#FEFEFE" d="M221.968 114.309C222.152 114.552 223.633 132.426 220.623 132.578C219.019 131.791 218.389 129.722 217.648 128.069C216.255 124.782 214.178 120.74 212.623 117.386C215.405 116.545 219.32 115.353 221.968 114.309Z"/><path fill="#FEFEFE" d="M277.527 188.51C279.81 188.472 286.261 187.76 286.421 191.232C286.469 192.289 286.083 192.698 285.339 193.391L285.201 193.518C285.474 195.534 286.901 194.147 286.312 197.642C283.372 199.702 281.243 199.257 277.592 199.225C277.506 195.705 277.538 192.042 277.527 188.51Z"/><path d="M279.273 194.536C281.006 194.478 283.267 194.097 284.499 195.221C284.928 196.321 284.771 196.113 284.595 197.422C282.945 197.621 281.059 197.543 279.382 197.527L279.273 194.536Z"/><path d="M279.69 190.146C281.349 190.073 283.486 189.629 284.585 190.98C284.756 191.8 284.476 192.218 284.134 192.971C282.733 193.12 280.696 193.019 279.242 192.99C279.307 192.011 279.28 191.009 279.69 190.146Z"/><path fill="#FEFEFE" d="M324.533 188.499C326.921 188.476 330.845 188.105 332.546 190.044C333.873 191.556 333.998 196.609 332.421 197.931C329.813 199.377 327.511 199.229 324.62 199.24C324.571 195.66 324.542 192.079 324.533 188.499Z"/><path d="M326.519 190.04C332.556 190.154 332.319 191.674 331.317 197.168C329.908 197.656 327.97 197.604 326.44 197.649C326.378 195.086 326.453 192.599 326.519 190.04Z"/><path fill="#FEFEFE" d="M241.301 188.516C246.205 188.294 247.948 191.227 246.857 195.989C246.457 197.734 245.53 198.292 243.998 199.103C238.797 199.91 237.095 195.661 238.465 191.201C238.946 189.635 239.877 189.159 241.301 188.516Z"/><path d="M240.642 190.228C241.67 190.158 243.028 189.942 243.971 190.445C246.153 191.609 245.578 195.611 244.554 197.429C243.721 197.547 242.35 197.766 241.581 197.477C238.995 196.504 239.862 192.132 240.642 190.228Z"/><path fill="#FEFEFE" d="M289.247 188.498C292.014 188.46 296.198 188.091 297.997 190.673C299.105 192.264 296.712 193.955 295.615 194.6C296.366 195.644 298.263 198.07 297.776 199.332L297.666 198.983L297.276 199.455L296.318 198.718C295.661 197.805 294.582 195.457 293.715 195.1C288.693 193.037 292.549 198.79 289.872 199.384L289.468 198.991C289.119 197.828 289.244 190.229 289.247 188.498Z"/><path d="M291.157 190.093C292.794 190.055 294.973 189.617 296.046 190.951C296.208 191.811 296.065 192.074 295.787 192.877C294.416 193.261 292.552 193.604 291.279 192.866C290.705 191.83 290.876 191.321 291.157 190.093Z"/><path fill="#FEFEFE" d="M261.261 188.474C262.594 188.457 264.639 188.325 265.92 188.554C270.233 189.325 271.786 191.9 267.526 194.691C268.361 195.87 269.986 197.786 269.931 199.126C269.163 199.43 269.387 199.328 268.423 199.111C267.301 197.39 266.248 194.495 263.884 194.713C262.055 194.883 263.72 197.78 262.388 199.394C260.507 199.225 261.245 190.386 261.261 188.474Z"/><path d="M265.9 190.12C266.964 190.095 267.156 190.154 267.867 190.86C268.293 192.68 267.235 192.903 265.805 193.28C265.01 193.273 264.628 193.258 263.845 193.137C263.158 192.733 263.12 192.622 262.804 191.882C263.004 189.846 264.271 190.072 265.9 190.12Z"/><path fill="#FEFEFE" d="M347.074 187.762C348.663 190.638 349.69 194.262 350.687 197.426C351.081 195.299 351.857 190.37 353.129 188.6C353.356 188.284 353.558 188.381 353.979 188.375L354.304 188.751L354.147 189.933C353.506 191.882 352.242 199.224 350.186 199.042C348.825 197.932 347.763 193.216 347.375 191.389C346.621 193.262 345.427 198.261 344.21 199.306C342.289 198.829 340.033 189.626 340.3 188.21C340.763 188.323 341.011 188.474 341.429 188.686C342.803 190.458 343.373 194.947 343.737 197.273C344.523 195.623 346.111 190.165 347.074 187.762Z"/><path fill="#FEFEFE" d="M141.212 175.083L141.461 175.284C141.573 176.866 141.561 178.486 141.573 180.075C137.665 181.366 133.022 182.772 129.059 183.817L128.751 183.475C129.464 181.478 130 180.456 130.99 178.579C133.53 177.346 138.319 175.973 141.212 175.083Z"/><path fill="#FEFEFE" d="M312.369 188.138C314.621 188.881 317.841 194.24 319.778 196.382C319.72 194.636 319.345 189.624 320.419 188.343L320.833 188.649C321.816 190.907 321.687 197.211 321.136 199.548C319.315 198.976 315.318 193.26 313.766 191.409C313.783 193.344 314.053 197.673 313.124 199.159L312.738 199.058C311.579 196.846 311.815 190.46 312.369 188.138Z"/><path fill="#FEFEFE" d="M304.499 188.146C305.883 188.535 309.703 197.427 309.813 199.006L309.315 199.358C307.395 198.723 308.765 196.851 305.062 196.662C304.093 196.726 303.164 196.62 302.196 196.541C301.733 197.687 301.127 199.251 299.837 199.655L299.675 199.221L300.116 199.62L299.737 199.498C299.441 197.439 303.22 189.951 304.499 188.146Z"/><path d="M304.566 190.95C305.411 191.649 306.352 194.096 306.528 195.183L306.278 195.524L305.56 195.472L302.694 195.65C303.29 194.072 303.914 192.506 304.566 190.95Z"/><path fill="#FEFEFE" d="M197.512 188.333C197.975 188.445 198.369 188.44 198.605 188.796C199.763 190.539 203.017 197.583 202.941 199.337L202.428 199.379C200.591 198.146 201.519 196.94 199.112 196.615L195.398 196.718C195.113 197.571 194.918 198.444 194.247 199.032C193.456 199.319 193.749 199.331 192.99 199.172C192.737 197.972 196.697 189.923 197.512 188.333Z"/><path d="M197.879 191.081L198.357 191.358C198.832 192.438 199.802 194.334 199.486 195.426L198.812 195.494C198.674 195.502 198.536 195.511 198.398 195.518C197.307 195.576 197.141 195.708 196.494 195.124C196.304 194.172 197.416 192.162 197.879 191.081Z"/><path fill="#FEFEFE" d="M213.991 188.491C215.282 188.481 221.288 188.322 222.17 188.788L222.267 189.367C221.465 190.985 217.603 189.582 216.01 190.254C215.62 191.009 215.742 192.063 215.75 192.961C217.366 193.041 219.912 192.976 221.171 193.955L221.005 194.309C219.796 194.831 218.279 194.739 216.938 194.76C216.77 194.763 216.274 194.857 216.08 194.888C215.539 195.755 215.556 196.493 216.038 197.381C217.642 198.064 221.02 196.673 222.419 198.335L222.228 198.657C220.485 199.476 216.133 199.265 214.012 199.252C213.928 195.749 213.988 192.011 213.991 188.491Z"/><path fill="#FEFEFE" d="M152.456 188.489C153.842 188.489 159.958 188.308 160.612 188.799L160.597 189.391C159.029 191.106 156.481 189.459 154.491 190.307C154.094 190.9 154.159 191.613 154.124 192.361C154.757 192.975 158.484 193.041 159.726 194.053L159.562 194.32C157.964 194.863 156.852 194.778 155.187 194.781C155.02 194.797 154.56 194.921 154.371 194.966C154.017 195.559 154.186 196.25 154.25 196.983C155.938 198.61 159.925 196.349 160.702 198.334L160.494 198.736C159.389 199.585 154.228 199.242 152.465 199.233C152.425 195.652 152.422 192.07 152.456 188.489Z"/><path fill="#FEFEFE" d="M173.43 188.487C175.393 188.501 179.187 188.357 181.144 188.628C181.425 188.667 181.473 189.037 181.603 189.382L181.389 189.74C179.439 190.626 175.966 189.276 174.847 191.231C174.827 191.884 175.092 192.219 175.408 192.797C176.926 193.73 179.655 192.309 180.744 193.994L180.54 194.377C179.461 194.832 177.026 194.768 175.751 194.802L175.361 194.926C174.938 195.61 175.159 196.63 175.23 197.505C176.836 197.533 180.146 197.145 181.323 197.982C181.537 198.715 181.568 198.374 181.266 199.042C179.73 199.422 175.278 199.255 173.463 199.232C173.396 195.651 173.385 192.068 173.43 188.487Z"/><path fill="#FEFEFE" d="M378.319 193.182C378.332 191.907 378.197 189.372 379.081 188.483L379.461 188.823C380.29 191.1 380.389 197.528 379.493 199.669C377.888 199.119 378.347 196.253 378.378 194.777C376.575 194.725 374.648 194.763 372.833 194.77C372.831 196.264 372.983 198.083 372.136 199.317C370.782 198.299 370.862 189.545 371.619 188.127C373.404 188.508 372.843 191.608 372.811 193.159C374.673 193.243 376.457 193.207 378.319 193.182Z"/><path fill="#FEFEFE" d="M387.828 188.384C388.538 188.41 388.874 188.335 389.395 188.753C390.393 190.654 389.242 193.038 389.458 195.062C389.789 198.173 392.476 197.62 394.627 197.447C394.639 197.388 394.651 197.33 394.663 197.271L394.716 196.977C395.082 195.049 394.619 189.47 395.693 188.508C396.449 188.459 396.196 188.366 396.74 188.751L396.827 189.688C396.855 191.735 396.93 194.101 396.75 195.856C396.367 199.587 391.123 200.162 388.875 197.947C387.253 196.348 387.792 190.249 387.828 188.384Z"/><path fill="#FEFEFE" d="M402.053 188.528C405.479 188.344 406.004 188.659 408.931 190.393C407.007 190.388 403.29 189.839 401.568 190.334C401.026 190.851 400.962 190.921 400.834 191.655C402.123 193.848 406.702 192.728 407.954 195.433C408.274 198.078 406.127 198.699 404.095 199.26C402.712 199.273 399.088 198.948 398.807 197.371C400.303 196.877 404.044 198.533 406.235 196.806C406.713 194.525 399.925 194.619 399.109 192.171C398.498 190.337 400.698 189.172 402.053 188.528Z"/><path fill="#FEFEFE" d="M249.559 188.331C249.728 188.353 250.79 188.538 250.83 188.597C252.803 191.526 248.635 197.602 254.191 197.625C258.828 197.644 254.911 190.824 257.197 188.456L257.849 188.5C258.375 189.083 258.204 188.932 258.254 189.937C258.263 191.707 258.728 196.579 257.192 198.046C255.225 199.923 250.401 199.638 249.729 196.54C249.272 194.434 249.499 190.811 249.559 188.331Z"/><path fill="#FEFEFE" d="M183.153 188.196C186.381 188.819 186.118 194.898 187.818 196.343C188.998 195.24 189.446 189.273 191.694 188.379L192.186 188.606C192.441 189.495 192.226 189.54 191.865 190.562C191.202 192.307 189.187 198.393 187.908 199.324C186.285 198.716 183.051 189.866 183.153 188.196Z"/><path fill="#FEFEFE" d="M360.209 188.551C361.975 188.501 368.169 188.107 369.322 188.853C369.378 189.613 369.475 189.312 368.983 189.92C368.085 190.297 366.764 190.114 365.752 190.055L365.704 195.375C365.723 196.446 366.019 198.811 365.053 199.319L364.524 199.081C363.604 197.664 363.858 192.229 363.789 190.185C362.747 190.215 361.869 190.313 360.883 189.977C360.211 189.346 360.421 189.652 360.209 188.551Z"/><path fill="#FEFEFE" d="M163.047 188.407C163.851 188.431 164.005 188.424 164.751 188.71C165.087 189.635 164.871 196.068 164.845 197.544C166.898 197.504 168.835 197.228 170.788 197.692C171.449 198.277 171.251 198.13 171.409 199.21C168.784 199.298 165.738 199.218 163.08 199.215C163.011 195.612 163 192.009 163.047 188.407Z"/><path fill="#FEFEFE" d="M203.115 188.56C204.959 188.514 211.164 188.088 212.263 188.922L212.346 189.549L211.957 189.953C210.964 190.289 209.783 190.11 208.717 190.031L208.615 194.938C208.624 196.066 208.86 198.67 208.073 199.343L207.409 199.222C206.66 197.798 206.824 192.084 206.808 190.167C205.839 190.21 204.631 190.357 203.76 190.013C203.082 189.329 203.282 189.672 203.115 188.56Z"/><path fill="#FEFEFE" d="M232.323 193.453C233.271 191.88 234.746 188.989 236.478 188.407L236.585 188.83C236.271 190.341 235.426 191.448 234.587 192.739C233.264 194.92 233.345 195.156 233.208 197.693C233.161 198.57 233.128 198.975 232.515 199.512L232.09 199.392C231.208 198.006 232.039 195.668 231.216 194.196C230.486 192.891 227.967 189.624 228.108 188.249C230.567 188.704 231.363 191.375 232.323 193.453Z"/><path fill="#FE168B" d="M200.863 116.907C201.606 117.582 204.532 124.081 204.492 125.172L204.115 125.244L203.103 124.465C201.522 123.136 200.102 123.466 198.035 123.512C199.022 121.33 199.965 119.127 200.863 116.907Z"/><path fill="#FEFEFE" d="M356.715 188.222C357.293 188.355 357.301 188.39 357.788 188.687C358.726 190.766 358.123 197.033 357.94 199.439C357.131 199.392 357.391 199.513 356.775 199.081C356.15 197.422 356.359 190.046 356.715 188.222Z"/></svg>